{"title":"Wicked Pictures_Right Amount Of Wrong_2014_(dvd+bonus)","uid":10938582,"size":2098661094,"categoryP":"porn","categoryS":"movies","magnet":"?xt=urn:btih:542bf317ba58e5679179ad0ee2f6e70ee4f39b08&amp;dn=Wicked+Pictures_Right+Amount+Of+Wrong_2014_%28dvd%2Bbonus%29&amp;tr=udp%3A%2F%2Ftracker.openbittorrent.com%3A80&amp;tr=udp%3A%2F%2Fopen.demonii.com%3A1337&amp;tr=udp%3A%2F%2Ftracker.coppersurfer.tk%3A6969&amp;tr=udp%3A%2F%2Fexodus.desync.com%3A6969","seeders":0,"leechers":2,"uploader":"NETBOX68","files":103,"time":1409472918,"description":"Wicked Pictures_Right Amount Of Wrong_2014_(dvd+bonus)\n-----------------------------------------------------------------------------------------------\n\nin = http://bayimg.com/gaANkAAgb\n\nsample = http://bayimg.com/GAAnLAaGB\n\ndvd = http://bayimg.com/gaANmaAGb\n\n*************************************************************************\ndvd-Right Amount Of Wrong\n1.88 gb\n01 45 ' 51 '' min\n1280*720\n**************************************************************************\nbonus-covers\nfront,back in 953 kb\n-------------------------------------------------------------------------------\nbonus-pictures 40\n640*360\n10.3 mb\n-----------------------------------------------------------------------------\nbonus-pornstars\n05 = 1.06 mb\n------------------------------------------------------------------------------\nbonus-sample\n49.0 mb\n02 ' 48 '' min\n1280*720\n--------------------------------------------------------------------------------\nbonus-screen \n02 = 646 kb\n*****************************************************************\nGeneral\nComplete name                    : C:ETOIMAxxxDVDWicked Pictures_Right Amount Of Wrong_2014_(dvd+bonus)dvdRight Amount Of Wrong.avi\nFormat                           : AVI\nFormat/Info                      : Audio Video Interleave\nFormat profile                   : OpenDML\nFile size                        : 1.88 GiB\nDuration                         : 1h 45mn\nOverall bit rate                 : 2 545 Kbps\nWriting application              : MEncoder SVN-r30881(20100311-gcc4.3.3)\nWriting library                  : MPlayer\n\nVideo\nID                               : 0\nFormat                           : MPEG-4 Visual\nFormat profile                   : Advanced Simple@L5\nFormat settings, BVOP            : 2\nFormat settings, QPel            : No\nFormat settings, GMC             : No warppoints\nFormat settings, Matrix          : Default (H.263)\nCodec ID                         : XVID\nCodec ID/Hint                    : XviD\nDuration                         : 1h 45mn\nBit rate                         : 2 340 Kbps\nWidth                            : 1 280 pixels\nHeight                           : 720 pixels\nDisplay aspect ratio             : 16:9\nFrame rate                       : 25.000 fps\nColor space                      : YUV\nChroma subsampling               : 4:2:0\nBit depth                        : 8 bits\nScan type                        : Progressive\nCompression mode                 : Lossy\nBits/(Pixel*Frame)               : 0.102\nStream size                      : 1.73 GiB (92%)\nWriting library                  : XviD 1.2.1 (UTC 2008-12-04)\n\nAudio\nID                               : 1\nFormat                           : MPEG Audio\nFormat version                   : Version 1\nFormat profile                   : Layer 3\nMode                             : Joint stereo\nMode extension                   : MS Stereo\nCodec ID                         : 55\nCodec ID/Hint                    : MP3\nDuration                         : 1h 45mn\nBit rate mode                    : Constant\nBit rate                         : 192 Kbps\nChannel(s)                       : 2 channels\nSampling rate                    : 48.0 KHz\nCompression mode                 : Lossy\nStream size                      : 2.77 MiB (0%)\nAlignment                        : Aligned on interleaves\nInterleave, duration             : 1259 ms (31.47 video frames)\nInterleave, preload duration     : 504 ms\nWriting library                  : LAME3.98????????????\n\n","torrent":{"xt":"urn:btih:542bf317ba58e5679179ad0ee2f6e70ee4f39b08","amp;dn":"Wicked+Pictures_Right+Amount+Of+Wrong_2014_%28dvd%2Bbonus%29","amp;tr":["udp%3A%2F%2Ftracker.openbittorrent.com%3A80","udp%3A%2F%2Fopen.demonii.com%3A1337","udp%3A%2F%2Ftracker.coppersurfer.tk%3A6969","udp%3A%2F%2Fexodus.desync.com%3A6969"],"infoHash":"542bf317ba58e5679179ad0ee2f6e70ee4f39b08","infoHashBuffer":{"type":"Buffer","data":[84,43,243,23,186,88,229,103,145,121,173,14,226,246,231,14,228,243,155,8]},"announce":[],"urlList":[]}}